<svg width="90" height="36" viewBox="0 0 90 36" fill="none" xmlns="http://www.w3.org/2000/svg">
<path d="M5.943 31.8249L3.93066 29.8112V24.4121H6.68114V28.6593L7.6961 29.6749H9.57222L10.5872 28.6593V19.8176L9.57222 18.802H6.01769L4.00536 16.7884V5.94623L6.01769 3.93256H11.2155L13.2278 5.94623V11.3805H10.4729V7.09815L9.46238 6.08252H7.77079L6.76023 7.09815V15.5617L7.77079 16.5773H11.3297L13.3421 18.591V29.8112L11.3297 31.8249H5.943Z" fill="#C1D2D9"/>
<path d="M11.0353 4.37223L12.7884 6.12649V10.9408H10.9122V7.27841V6.91349L10.653 6.65408L9.89728 5.89786L9.63805 5.63846H9.27776H7.95525H7.59057L7.33134 5.89786L6.57562 6.65408L6.31638 6.91349V7.27841V15.3814V15.7463L6.57562 16.0058L7.33134 16.762L7.59057 17.0214H7.95525H11.1495L12.9026 18.7756V29.631L11.1495 31.3852H6.12306L4.36996 29.631V24.8518H6.24608V28.479V28.844L6.50532 29.1034L7.26104 29.8596L7.52027 30.119H7.88495H9.39639H9.76108L10.0203 29.8596L10.776 29.1034L11.0353 28.844V28.479V19.9979V19.633L10.776 19.3736L10.0203 18.6174L9.76108 18.358H9.39639H6.20215L4.44905 16.6037V6.13088L6.20215 4.37662H11.0353M11.3955 3.4929H5.83747L3.56591 5.76596V16.973L5.83747 19.2461H9.392L10.1477 20.0023V28.4834L9.392 29.2397H7.88056L7.12483 28.4834V23.9725H3.49121V29.9915L5.76277 32.2645H11.5142L13.7857 29.9915V18.4107L11.5142 16.1376H7.95964L7.20392 15.3814V7.27841L7.95964 6.52219H9.28216L10.0379 7.27841V11.8201H13.6715V5.76596L11.3955 3.4929Z" fill="#C42626"/>
<path d="M23.6015 31.8249L22.881 24.4033H18.7552L18.0347 31.8249H15.2974L18.6366 3.93256H23.0787L26.4882 31.8249H23.6015ZM18.9354 22.1786H22.7008L21.2553 7.19927H20.3809L18.9354 22.1786Z" fill="#C1D2D9"/>
<path d="M22.6875 4.37223L25.9916 31.3852H23.9969L23.3554 24.7595L23.2763 23.9637H22.4766H19.1462H18.3465L18.2674 24.7595L17.626 31.3852H15.7806L19.0144 4.37223H22.6875ZM18.4476 22.6183H19.4142H22.213H23.1796L23.0874 21.6554L21.6858 7.1553H19.9371L18.5355 21.6554L18.4476 22.6183ZM23.4652 3.4929H18.2455L14.8008 32.2645H18.4344L19.155 24.843H22.4854L23.206 32.2645H26.989L23.4652 3.4929ZM19.4186 21.739L20.8202 7.23884L22.2218 21.739H19.4186Z" fill="#C42626"/>
<path d="M41.5719 31.8249V9.70096L40.6976 9.6482L37.9076 31.8249H35.0868L32.3012 9.6482L31.4224 9.70096V31.8249H29.0103V3.93256H33.4391L36.5192 30.563L39.5948 3.93256H44.1379V31.8249H41.5719Z" fill="#C1D2D9"/>
<path d="M43.6984 4.37223V31.3852H42.0112V9.70096L40.2625 9.59104L37.5208 31.3852H36.8662L37.3934 26.8391L39.9901 4.37223H43.6984ZM33.048 4.37223L35.6447 26.8391L36.172 31.3852H35.4778L32.7361 9.59104L30.9874 9.70096V31.3852H29.4539V4.37223H33.048ZM44.5772 3.4929H39.2036L36.5191 26.738L33.8345 3.4929H28.5708V32.2645H31.8617V9.70096L34.7001 32.2645H38.2941L41.1325 9.70096V32.2645H44.5772V3.4929Z" fill="#C42626"/>
<path d="M49.4103 31.8249L47.3979 29.8112V5.94623L49.4103 3.93256H55.3638L57.3761 5.94623V29.8112L55.3638 31.8249H49.4103ZM50.1528 7.17289V28.5846L51.1678 29.6002H53.6107L54.6256 28.5846V7.17289L53.6107 6.15727H51.1678L50.1528 7.17289Z" fill="#C1D2D9"/>
<path d="M55.1836 4.37223L56.9367 6.12649V29.6266L55.1836 31.3808H49.5947L47.8416 29.6266V6.13088L49.5947 4.37662H55.1836M50.9832 30.0398H51.3478H53.4305H53.7952L54.0544 29.7804L54.8101 29.0242L55.0693 28.7648V28.3999V7.35315V6.98823L54.8101 6.72883L54.0544 5.9726L53.7952 5.7132H53.4305H51.3478H50.9832L50.7239 5.9726L49.9682 6.72883L49.709 6.98823V7.35315V28.3999V28.7648L49.9682 29.0242L50.7239 29.7804L50.9832 30.0398ZM55.5483 3.4929H49.2301L46.9585 5.76596V29.9959L49.2301 32.2689H55.5483L57.8198 29.9959V5.76596L55.5483 3.4929ZM51.3478 29.1605L50.5921 28.4043V7.35315L51.3478 6.59693H53.4305L54.1862 7.35315V28.3999L53.4305 29.1561H51.3478V29.1605Z" fill="#C42626"/>
<path d="M62.6134 31.8249L60.6011 29.8112V3.93256H63.3516V28.5846L64.3665 29.6002H66.5853L67.6003 28.5846V3.93256H70.3508V29.8112L68.3384 31.8249H62.6134Z" fill="#C1D2D9"/>
<path d="M69.9113 4.37223V29.6266L68.1582 31.3808H62.7935L61.0404 29.6266V4.37223H62.9165V28.4043V28.7692L63.1757 29.0286L63.9314 29.7848L64.1907 30.0442H64.5554H66.4095H66.7742L67.0334 29.7848L67.7892 29.0286L68.0484 28.7692V28.4043V4.37223H69.9113ZM70.7901 3.4929H67.1565V28.4043L66.4007 29.1605H64.5466L63.7908 28.4043V3.4929H60.1572V29.9915L62.4288 32.2645H68.5185L70.7901 29.9915V3.4929Z" fill="#C42626"/>
<path d="M88.3124 34.7574L83.5188 16.3091L88.2421 1H73.2858H70.7638H57.6748V2.09477L56.5852 1H48.2019L47.0727 2.12994V1H36.9891L36.5234 5.03612L36.0576 1H26.0795V4.36343L25.6664 1H16.0354L15.6487 4.22274L12.4281 1H4.80498L1.07469 4.73275V18.0018L4.55014 21.4796H1V31.0247L4.73028 34.7574H11.9975H12.5467H20.7015L20.8245 33.4956L20.9476 34.7574H26.0882H29.8053H47.0727V33.6275L48.2019 34.7574H56.5852L58.9973 32.3437L61.4095 34.7574H69.5643L70.7682 33.5528V34.7574H88.3124Z" fill="#C1D2D9" stroke="#C42626" stroke-width="2" stroke-miterlimit="10"/>
<path d="M81.6602 31.8249L78.7603 18.9251L76.4404 25.3354V31.8249H73.6899V3.93256H76.4404V22.0116L81.5284 3.93256H84.2701L80.4739 16.2432L84.5249 31.8249H81.6602Z" fill="#C1D2D9"/>
<path d="M83.6724 4.37223L80.0871 15.9926L80.0124 16.23L80.074 16.4718L83.9492 31.3852H82.0072L79.5116 20.2969L78.8525 17.3599L77.8288 20.1914L76.0493 25.1112L75.9966 25.2563V25.4102V31.3808H74.1204V4.37223H75.9966V18.824V25.1947L77.7233 19.0614L81.8578 4.37223H83.6724ZM84.8631 3.4929H81.1944L76.8797 18.824V3.4929H73.2461V32.2645H76.8797V25.4146L78.6592 20.4947L81.3086 32.2689H85.0916L80.9307 16.2564L84.8631 3.4929Z" fill="#C42626"/>
<path d="M10.0335 7.27841L9.27776 6.52219H7.95525L7.19952 7.27841V15.3814L7.95525 16.1376H11.5098L13.7813 18.4107V29.9959L11.5098 32.2689H5.75838L3.48682 29.9959V23.9725H7.12044V28.479L7.87616 29.2353H9.38761L10.1433 28.479V19.9979L9.38761 19.2417H5.83307L3.56151 16.9686V5.76596L5.83307 3.4929H11.3955L13.6671 5.76596V11.8245H10.0335V7.27841Z" fill="#023440"/>
<path d="M19.1506 24.843L18.43 32.2645H14.7964L18.2411 3.4929H23.4608L26.9802 32.2645H23.1972L22.4766 24.843H19.1506ZM20.8158 7.24323L19.4186 21.739H22.2174L20.8158 7.24323Z" fill="#023440"/>
<path d="M34.7001 32.2645L31.8617 9.70096V32.2645H28.5708V3.4929H33.8301L36.5147 26.738L39.1993 3.4929H44.5728V32.2645H41.1281V9.70096L38.2898 32.2645H34.7001Z" fill="#023440"/>
<path d="M57.8154 29.9915L55.5439 32.2645H49.2257L46.9541 29.9915V5.76596L49.2257 3.4929H55.5439L57.8154 5.76596V29.9915ZM51.3478 6.59693L50.5921 7.35315V28.3999L51.3478 29.1561H53.4305L54.1862 28.3999V7.35315L53.4305 6.59693H51.3478Z" fill="#023440"/>
<path d="M68.5229 32.2645H62.4332L60.1616 29.9915V3.4929H63.7952V28.4043L64.551 29.1605H66.4051L67.1608 28.4043V3.4929H70.7945V29.9915L68.5229 32.2645Z" fill="#023440"/>
<path d="M76.8797 25.4146V32.2645H73.2461V3.4929H76.8797V18.824L81.1944 3.4929H84.8631L80.9307 16.252L85.0916 32.2645H81.3086L78.6592 20.4903L76.8797 25.4146Z" fill="#023440"/>
</svg>
