<svg width="200" height="200" viewBox="0 0 200 200" fill="none" xmlns="http://www.w3.org/2000/svg">
    <g transform="translate(10,0)">
        <path fill-rule="evenodd" clip-rule="evenodd" d="M19 33V41.5H58.5V50H22V58.5H58.5V70.5H22V133.5H58.5V145.5H22V153.5H58.5V162.5H19V171H67V122H82.5V165.5H93.5V122H108V171H156.5V162.5H117V154.5H154V145.5H117V133.5H154V70.5H116.5V58.5H154V50H116.5V41.5H156.5V33H108V81.5H93.5V38.5H82.5V81.5H67V33H19ZM39 79H30V125H39V79ZM146 79H137V125H146V79ZM47 79H58V125H47V79ZM129 79H117V125H129V79ZM67 90H108V98H67V90ZM108 106H67V114H108V106Z" fill="#2C9AFE"/>
    </g>
</svg>
