<svg width="804" height="200" viewBox="0 0 804 200" fill="none" xmlns="http://www.w3.org/2000/svg">
<path fill-rule="evenodd" clip-rule="evenodd" d="M19 33V41.5H58.5V50H22V58.5H58.5V70.5H22V133.5H58.5V145.5H22V153.5H58.5V162.5H19V171H67V122H82.5V165.5H93.5V122H108V171H156.5V162.5H117V154.5H154V145.5H117V133.5H154V70.5H116.5V58.5H154V50H116.5V41.5H156.5V33H108V81.5H93.5V38.5H82.5V81.5H67V33H19ZM39 79H30V125H39V79ZM146 79H137V125H146V79ZM47 79H58V125H47V79ZM129 79H117V125H129V79ZM67 90H108V98H67V90ZM108 106H67V114H108V106Z" fill="#2C9AFE"/>
<line x1="184.958" y1="47.0418" x2="184.042" y2="156.042" stroke="#2C9AFE" stroke-width="10" stroke-linecap="round"/>
<path d="M239.616 142.168C252.587 142.168 259.072 137.731 259.072 128.856C259.072 126.125 258.475 123.821 257.28 121.944C256.171 119.981 254.635 118.317 252.672 116.952C250.709 115.501 248.448 114.264 245.888 113.24C243.413 112.216 240.768 111.192 237.952 110.168C234.709 109.059 231.637 107.821 228.736 106.456C225.835 105.005 223.317 103.341 221.184 101.464C219.051 99.5013 217.344 97.1973 216.064 94.552C214.869 91.9067 214.272 88.7067 214.272 84.952C214.272 77.1867 216.917 71.128 222.208 66.776C227.499 62.424 234.795 60.248 244.096 60.248C249.472 60.248 254.336 60.8453 258.688 62.04C263.125 63.1493 266.368 64.3867 268.416 65.752L264.448 75.864C262.656 74.7547 259.968 73.688 256.384 72.664C252.885 71.5547 248.789 71 244.096 71C241.707 71 239.488 71.256 237.44 71.768C235.392 72.28 233.6 73.048 232.064 74.072C230.528 75.096 229.291 76.4187 228.352 78.04C227.499 79.576 227.072 81.4107 227.072 83.544C227.072 85.9333 227.541 87.9387 228.48 89.56C229.419 91.1813 230.741 92.632 232.448 93.912C234.155 95.1067 236.117 96.216 238.336 97.24C240.64 98.264 243.157 99.288 245.888 100.312C249.728 101.848 253.227 103.384 256.384 104.92C259.627 106.456 262.4 108.291 264.704 110.424C267.093 112.557 268.928 115.117 270.208 118.104C271.488 121.005 272.128 124.547 272.128 128.728C272.128 136.493 269.269 142.467 263.552 146.648C257.92 150.829 249.941 152.92 239.616 152.92C236.117 152.92 232.875 152.664 229.888 152.152C226.987 151.725 224.384 151.213 222.08 150.616C219.776 149.933 217.771 149.251 216.064 148.568C214.443 147.8 213.163 147.16 212.224 146.648L215.936 136.408C217.899 137.517 220.885 138.755 224.896 140.12C228.907 141.485 233.813 142.168 239.616 142.168ZM346.397 62.296V73.048H318.493V151H306.077V73.048H278.173V62.296H346.397ZM410.522 151C409.071 147.16 407.706 143.405 406.426 139.736C405.146 135.981 403.823 132.184 402.458 128.344H362.266L354.202 151H341.274C344.687 141.613 347.887 132.952 350.874 125.016C353.861 116.995 356.762 109.4 359.578 102.232C362.479 95.064 365.338 88.2373 368.154 81.752C370.97 75.1813 373.914 68.696 376.986 62.296H388.378C391.45 68.696 394.394 75.1813 397.21 81.752C400.026 88.2373 402.842 95.064 405.658 102.232C408.559 109.4 411.503 116.995 414.49 125.016C417.477 132.952 420.677 141.613 424.09 151H410.522ZM398.874 118.104C396.143 110.68 393.413 103.512 390.682 96.6C388.037 89.6027 385.263 82.904 382.362 76.504C379.375 82.904 376.517 89.6027 373.786 96.6C371.141 103.512 368.495 110.68 365.85 118.104H398.874ZM479.525 113.88C480.89 115.587 482.597 117.848 484.645 120.664C486.778 123.395 488.954 126.467 491.173 129.88C493.392 133.208 495.568 136.707 497.701 140.376C499.92 144.045 501.797 147.587 503.333 151H489.765C488.058 147.757 486.181 144.472 484.133 141.144C482.17 137.816 480.165 134.659 478.117 131.672C476.069 128.6 474.021 125.741 471.973 123.096C470.01 120.451 468.218 118.147 466.597 116.184C465.488 116.269 464.336 116.312 463.141 116.312C462.032 116.312 460.88 116.312 459.685 116.312H448.549V151H436.133V63.576C439.632 62.7227 443.514 62.168 447.781 61.912C452.133 61.5707 456.101 61.4 459.685 61.4C472.144 61.4 481.616 63.7467 488.101 68.44C494.672 73.1333 497.957 80.1307 497.957 89.432C497.957 95.32 496.378 100.355 493.221 104.536C490.149 108.717 485.584 111.832 479.525 113.88ZM460.709 72.28C455.418 72.28 451.365 72.408 448.549 72.664V106.072H457.381C461.648 106.072 465.488 105.859 468.901 105.432C472.314 105.005 475.173 104.195 477.477 103C479.866 101.805 481.701 100.141 482.981 98.008C484.261 95.7893 484.901 92.888 484.901 89.304C484.901 85.976 484.261 83.2027 482.981 80.984C481.701 78.7653 479.952 77.016 477.733 75.736C475.6 74.456 473.04 73.56 470.053 73.048C467.152 72.536 464.037 72.28 460.709 72.28ZM537.241 142.168C550.212 142.168 556.697 137.731 556.697 128.856C556.697 126.125 556.1 123.821 554.905 121.944C553.796 119.981 552.26 118.317 550.297 116.952C548.334 115.501 546.073 114.264 543.513 113.24C541.038 112.216 538.393 111.192 535.577 110.168C532.334 109.059 529.262 107.821 526.361 106.456C523.46 105.005 520.942 103.341 518.809 101.464C516.676 99.5013 514.969 97.1973 513.689 94.552C512.494 91.9067 511.897 88.7067 511.897 84.952C511.897 77.1867 514.542 71.128 519.833 66.776C525.124 62.424 532.42 60.248 541.721 60.248C547.097 60.248 551.961 60.8453 556.313 62.04C560.75 63.1493 563.993 64.3867 566.041 65.752L562.073 75.864C560.281 74.7547 557.593 73.688 554.009 72.664C550.51 71.5547 546.414 71 541.721 71C539.332 71 537.113 71.256 535.065 71.768C533.017 72.28 531.225 73.048 529.689 74.072C528.153 75.096 526.916 76.4187 525.977 78.04C525.124 79.576 524.697 81.4107 524.697 83.544C524.697 85.9333 525.166 87.9387 526.105 89.56C527.044 91.1813 528.366 92.632 530.073 93.912C531.78 95.1067 533.742 96.216 535.961 97.24C538.265 98.264 540.782 99.288 543.513 100.312C547.353 101.848 550.852 103.384 554.009 104.92C557.252 106.456 560.025 108.291 562.329 110.424C564.718 112.557 566.553 115.117 567.833 118.104C569.113 121.005 569.753 124.547 569.753 128.728C569.753 136.493 566.894 142.467 561.177 146.648C555.545 150.829 547.566 152.92 537.241 152.92C533.742 152.92 530.5 152.664 527.513 152.152C524.612 151.725 522.009 151.213 519.705 150.616C517.401 149.933 515.396 149.251 513.689 148.568C512.068 147.8 510.788 147.16 509.849 146.648L513.561 136.408C515.524 137.517 518.51 138.755 522.521 140.12C526.532 141.485 531.438 142.168 537.241 142.168ZM640.566 62.296H652.982V151H640.566V110.04H597.174V151H584.758V62.296H597.174V99.288H640.566V62.296ZM675.008 62.296H687.424V151H675.008V62.296ZM732.935 61.4C745.394 61.4 754.951 63.7893 761.607 68.568C768.348 73.2613 771.719 80.3013 771.719 89.688C771.719 94.808 770.78 99.2027 768.903 102.872C767.111 106.456 764.466 109.4 760.967 111.704C757.554 113.923 753.372 115.544 748.423 116.568C743.474 117.592 737.884 118.104 731.655 118.104H721.799V151H709.383V63.576C712.882 62.7227 716.764 62.168 721.031 61.912C725.383 61.5707 729.351 61.4 732.935 61.4ZM733.959 72.28C728.668 72.28 724.615 72.408 721.799 72.664V107.48H731.143C735.41 107.48 739.25 107.224 742.663 106.712C746.076 106.115 748.935 105.176 751.239 103.896C753.628 102.531 755.463 100.696 756.743 98.392C758.023 96.088 758.663 93.144 758.663 89.56C758.663 86.1467 757.98 83.3307 756.615 81.112C755.335 78.8933 753.543 77.144 751.239 75.864C749.02 74.4987 746.418 73.56 743.431 73.048C740.444 72.536 737.287 72.28 733.959 72.28Z" fill="#2C9AFE"/>
</svg>
