<?xml version="1.0" encoding="utf-8"?>
<!-- Generator: Adobe Illustrator 27.8.1, SVG Export Plug-In . SVG Version: 6.00 Build 0)  -->
<svg version="1.1" xmlns="http://www.w3.org/2000/svg" xmlns:xlink="http://www.w3.org/1999/xlink" x="0px" y="0px"
	 viewBox="0 0 398.2 86.5" style="enable-background:new 0 0 398.2 86.5;" xml:space="preserve">
<style type="text/css">
	.st0{fill:#90CAF9;}
	.st1{fill:#C1D2D9;}
	.st2{fill:#023440;}
</style>
<g id="Layer_1">
	<g>
		<g>
			<path class="st0" d="M29.3,77.5c-2.4,0-4.7-0.1-6.7-0.3c-2.1-0.2-3.9-0.5-5.5-0.8c-1.8-0.3-3.5-0.7-5.1-1.2
				c-0.9-0.2-1.4-1-1.4-1.9V54.8c0-0.6,0.3-1.2,0.8-1.6c0.3-0.3,0.8-0.4,1.2-0.4c0.2,0,0.4,0,0.6,0.1c1.3,0.4,2.6,0.7,4,0.9
				c0.1,0,0.1,0,0.2,0c1.1,0.3,2.5,0.5,3.9,0.7c1.5,0.2,3,0.3,4.5,0.3c2.2,0,2.2-0.7,2.2-1.1c0-0.2-0.2-0.5-0.7-1
				c-0.8-0.8-1.9-1.7-3.1-2.6c-1.3-1-2.8-2.2-4.3-3.4c-1.6-1.3-3.1-2.8-4.5-4.5c-1.4-1.7-2.6-3.7-3.6-5.9c-1-2.2-1.5-4.8-1.5-7.7
				c0-3.2,0.6-6,1.8-8.5c1.2-2.5,2.8-4.6,4.9-6.3c2-1.6,4.4-2.9,7.2-3.7c2.7-0.8,5.6-1.2,8.6-1.2c1.5,0,3.1,0.1,4.6,0.2l4,0.4
				c1.4,0.2,2.7,0.4,4,0.6c1,0.1,1.7,1,1.7,2v17.3c0,0.6-0.2,1.1-0.7,1.5c-0.4,0.3-0.8,0.5-1.3,0.5c-0.1,0-0.2,0-0.2,0
				c-0.5-0.1-1-0.1-1.6-0.2c-0.5-0.1-1.1-0.1-1.7-0.2c-0.6-0.1-1.1-0.1-1.7-0.1c-0.3,0-0.8,0-1.3,0c-0.4,0-0.8,0.1-1.2,0.2
				c0,0-0.1,0-0.1,0c0.1,0.1,0.2,0.2,0.3,0.3c0.8,0.7,1.8,1.6,3,2.5c1.2,1,2.6,2.2,4,3.5c1.5,1.4,3,3,4.3,4.8
				c1.3,1.8,2.4,3.8,3.3,6.1c0.9,2.3,1.4,4.9,1.4,7.8c0,2.9-0.5,5.7-1.4,8.3c-1,2.6-2.5,5-4.5,6.9c-2,1.9-4.6,3.5-7.7,4.6
				C37,76.9,33.4,77.5,29.3,77.5z"/>
			<path class="st1" d="M32.8,10.8c1.5,0,3,0.1,4.4,0.2c1.5,0.2,2.8,0.3,4,0.4c1.4,0.2,2.7,0.4,4,0.6v17.3c-0.5-0.1-1-0.1-1.7-0.2
				c-0.5-0.1-1-0.1-1.7-0.2c-0.6-0.1-1.3-0.1-1.9-0.1c-0.4,0-0.8,0-1.4,0c-0.6,0-1.1,0.1-1.6,0.2c-0.5,0.1-0.9,0.3-1.3,0.6
				c-0.4,0.3-0.6,0.7-0.6,1.3c0,0.5,0.4,1.1,1.2,1.8c0.8,0.7,1.8,1.6,3,2.6c1.2,1,2.5,2.1,4,3.4c1.4,1.3,2.8,2.8,4,4.4
				c1.2,1.7,2.2,3.5,3,5.6c0.8,2.1,1.2,4.4,1.2,7c0,2.7-0.4,5.3-1.3,7.6c-0.9,2.4-2.2,4.4-4,6.2c-1.8,1.8-4.1,3.1-7,4.2
				c-2.8,1-6.2,1.5-10.1,1.5c-2.3,0-4.5-0.1-6.5-0.3c-2-0.2-3.8-0.5-5.3-0.8c-1.8-0.3-3.4-0.7-4.9-1.1V54.8c1.4,0.4,2.8,0.8,4.3,1
				c1.2,0.3,2.6,0.6,4.2,0.7c1.6,0.2,3.2,0.3,4.8,0.3c2.8,0,4.2-1,4.2-3.1c0-0.8-0.4-1.6-1.3-2.4c-0.9-0.8-2-1.8-3.3-2.8
				c-1.3-1-2.7-2.1-4.2-3.4c-1.5-1.2-2.9-2.6-4.2-4.2c-1.3-1.6-2.4-3.4-3.3-5.4c-0.9-2-1.3-4.3-1.3-6.9c0-2.9,0.5-5.5,1.6-7.7
				c1-2.2,2.5-4.1,4.3-5.5c1.8-1.5,4-2.6,6.5-3.4C27.3,11.2,30,10.8,32.8,10.8 M32.8,6.8c-3.2,0-6.3,0.4-9.2,1.3
				c-3,0.9-5.6,2.3-7.8,4.1c-2.3,1.9-4.2,4.2-5.5,7c-1.3,2.7-2,5.9-2,9.4c0,3.1,0.5,6,1.6,8.5c1,2.3,2.3,4.5,3.9,6.4
				c1.5,1.8,3.1,3.4,4.8,4.8c1.5,1.2,3,2.4,4.3,3.4c0.5,0.4,1,0.8,1.5,1.2c-1,0-2-0.1-3-0.2c-1.4-0.2-2.6-0.4-3.7-0.6
				c-0.1,0-0.2,0-0.3-0.1c-1.3-0.2-2.5-0.5-3.7-0.9c-0.4-0.1-0.8-0.2-1.2-0.2c-0.8,0-1.7,0.3-2.4,0.8c-1,0.8-1.6,2-1.6,3.2v18.5
				c0,1.8,1.2,3.3,2.9,3.8c1.6,0.5,3.4,0.9,5.3,1.2c1.6,0.3,3.5,0.6,5.6,0.8c2.1,0.2,4.5,0.3,6.9,0.3c4.3,0,8.2-0.6,11.4-1.8
				c3.4-1.2,6.2-2.9,8.4-5c2.2-2.2,3.9-4.8,5-7.7c1-2.8,1.5-5.8,1.5-9c0-3.1-0.5-5.9-1.5-8.5c-1-2.4-2.1-4.6-3.5-6.5
				c-1.4-1.9-2.9-3.6-4.5-5.1c-1.2-1.1-2.3-2-3.3-2.9c0.1,0,0.2,0,0.3,0c0,0,0.1,0,0.1,0c0.6,0.1,1.1,0.1,1.6,0.2c0.2,0,0.3,0,0.5,0
				c1,0,1.9-0.4,2.7-1c0.9-0.8,1.3-1.8,1.3-3V12c0-2-1.5-3.7-3.4-4c-1.3-0.2-2.6-0.4-4-0.6c0,0-0.1,0-0.1,0l-0.4,0l-3.5-0.4
				C36.1,6.9,34.4,6.8,32.8,6.8L32.8,6.8z"/>
		</g>
		<g>
			<path class="st0" d="M59.8,75.9c-1.1,0-2-0.9-2-2V30.5h-9.4c-1.1,0-2-0.9-2-2V12.3c0-1.1,0.9-2,2-2h43.1c1.1,0,2,0.9,2,2v16.2
				c0,1.1-0.9,2-2,2h-9.4v43.5c0,1.1-0.9,2-2,2H59.8z"/>
			<path class="st1" d="M91.5,12.3v16.2H80.1v45.5H59.8V28.5H48.5V12.3H91.5 M91.5,8.3H48.5c-2.2,0-4,1.8-4,4v16.2c0,2.2,1.8,4,4,4
				h7.4v41.5c0,2.2,1.8,4,4,4h20.3c2.2,0,4-1.8,4-4V32.5h7.4c2.2,0,4-1.8,4-4V12.3C95.5,10.1,93.7,8.3,91.5,8.3L91.5,8.3z"/>
		</g>
		<g>
			<path class="st0" d="M181.5,75.9c-0.7,0-1.4-0.4-1.7-1l-5.5-9.3v8.3c0,1.1-0.9,2-2,2h-19.7c-1.1,0-2-0.9-2-2V12.3
				c0-1.1,0.9-2,2-2h21.2c4.1,0,8,0.6,11.5,1.7c3.6,1.1,6.8,2.8,9.4,5c2.7,2.2,4.8,5,6.3,8.2c1.5,3.2,2.3,7,2.3,11.1
				c0,3.3-0.5,6.2-1.4,8.6c-0.9,2.3-2,4.3-3.1,5.8c-1,1.3-2,2.4-3.2,3.4l10.7,18.8c0.4,0.6,0.3,1.4,0,2c-0.4,0.6-1,1-1.7,1H181.5z"
				/>
			<path class="st1" d="M173.8,12.3c3.9,0,7.6,0.5,10.9,1.6c3.4,1,6.3,2.6,8.7,4.6c2.5,2,4.4,4.5,5.8,7.5c1.4,3,2.1,6.4,2.1,10.3
				c0,3.1-0.4,5.7-1.3,7.9c-0.9,2.2-1.8,3.9-2.9,5.4c-1.2,1.6-2.6,3-4.2,4.1l11.5,20.3h-23.1l-9.2-15.6v15.6h-19.7V12.3H173.8
				 M173.8,8.3h-21.2c-2.2,0-4,1.8-4,4v61.6c0,2.2,1.8,4,4,4h19.7c2.2,0,4-1.8,4-4v-1l1.8,3c0.7,1.2,2,2,3.4,2h23.1
				c1.4,0,2.7-0.8,3.5-2c0.7-1.2,0.7-2.7,0-4l-9.9-17.5c0.8-0.8,1.5-1.6,2.2-2.5c0,0,0,0,0-0.1c1.2-1.7,2.4-3.8,3.4-6.2
				c1-2.6,1.6-5.8,1.6-9.3c0-4.4-0.8-8.5-2.5-12c-1.6-3.5-3.9-6.5-6.9-8.9c-2.9-2.4-6.2-4.2-10.1-5.4C182.2,8.9,178.1,8.3,173.8,8.3
				L173.8,8.3z"/>
		</g>
		<g>
			<path class="st0" d="M222.9,77.5c-2.4,0-4.7-0.1-6.7-0.3c-2.1-0.2-3.9-0.5-5.5-0.8c-1.8-0.3-3.5-0.7-5.1-1.2
				c-0.9-0.2-1.4-1-1.4-1.9V54.8c0-0.6,0.3-1.2,0.8-1.6c0.3-0.3,0.8-0.4,1.2-0.4c0.2,0,0.4,0,0.6,0.1c1.3,0.4,2.6,0.7,4,0.9
				c0.1,0,0.1,0,0.2,0c1.1,0.3,2.5,0.5,3.9,0.7s3,0.3,4.5,0.3c2.2,0,2.2-0.7,2.2-1.1c0-0.2-0.2-0.5-0.7-1c-0.8-0.8-1.9-1.7-3.1-2.6
				c-1.3-1-2.8-2.2-4.3-3.4c-1.6-1.3-3.1-2.8-4.5-4.5c-1.4-1.7-2.6-3.7-3.6-5.9c-1-2.2-1.5-4.8-1.5-7.7c0-3.2,0.6-6,1.8-8.5
				c1.2-2.5,2.8-4.6,4.9-6.3c2-1.6,4.4-2.9,7.2-3.7c2.7-0.8,5.6-1.2,8.6-1.2c1.5,0,3.1,0.1,4.6,0.2l4,0.4c1.4,0.2,2.8,0.4,4,0.6
				c1,0.1,1.7,1,1.7,2v17.3c0,0.6-0.2,1.1-0.7,1.5c-0.4,0.3-0.8,0.5-1.3,0.5c-0.1,0-0.2,0-0.2,0c-0.5-0.1-1-0.1-1.6-0.2
				c-0.5-0.1-1.1-0.1-1.7-0.2c-0.6-0.1-1.1-0.1-1.7-0.1c-0.3,0-0.8,0-1.3,0c-0.4,0-0.8,0.1-1.2,0.2c0,0-0.1,0-0.1,0
				c0.1,0.1,0.2,0.2,0.3,0.3c0.8,0.7,1.8,1.6,3,2.5c1.2,1,2.6,2.2,4,3.5c1.6,1.4,3,3,4.3,4.8c1.3,1.8,2.4,3.8,3.3,6.1
				c0.9,2.3,1.4,4.9,1.4,7.8c0,2.9-0.5,5.7-1.4,8.3c-1,2.6-2.5,5-4.5,6.9c-2,1.9-4.6,3.5-7.7,4.6C230.6,76.9,227,77.5,222.9,77.5z"
				/>
			<path class="st1" d="M226.4,10.8c1.5,0,3,0.1,4.4,0.2c1.5,0.2,2.8,0.3,4,0.4c1.4,0.2,2.7,0.4,4,0.6v17.3c-0.5-0.1-1-0.1-1.7-0.2
				c-0.5-0.1-1-0.1-1.7-0.2c-0.6-0.1-1.3-0.1-1.9-0.1c-0.4,0-0.8,0-1.4,0c-0.6,0-1.1,0.1-1.6,0.2c-0.5,0.1-0.9,0.3-1.3,0.6
				c-0.4,0.3-0.6,0.7-0.6,1.3c0,0.5,0.4,1.1,1.2,1.8c0.8,0.7,1.8,1.6,3,2.6c1.2,1,2.5,2.1,4,3.4c1.4,1.3,2.8,2.8,4,4.4
				c1.2,1.7,2.2,3.5,3,5.6c0.8,2.1,1.2,4.4,1.2,7c0,2.7-0.4,5.3-1.3,7.6c-0.9,2.4-2.2,4.4-4,6.2c-1.8,1.8-4.1,3.1-7,4.2
				c-2.8,1-6.2,1.5-10.1,1.5c-2.3,0-4.5-0.1-6.5-0.3c-2-0.2-3.8-0.5-5.3-0.8c-1.8-0.3-3.4-0.7-4.9-1.1V54.8c1.4,0.4,2.8,0.8,4.2,1
				c1.2,0.3,2.6,0.6,4.2,0.7s3.2,0.3,4.8,0.3c2.8,0,4.2-1,4.2-3.1c0-0.8-0.4-1.6-1.3-2.4c-0.9-0.8-2-1.8-3.3-2.8
				c-1.3-1-2.7-2.1-4.2-3.4c-1.5-1.2-2.9-2.6-4.2-4.2c-1.3-1.6-2.4-3.4-3.3-5.4c-0.9-2-1.3-4.3-1.3-6.9c0-2.9,0.5-5.5,1.6-7.7
				c1-2.2,2.5-4.1,4.3-5.5c1.8-1.5,4-2.6,6.5-3.4C220.9,11.2,223.6,10.8,226.4,10.8 M226.4,6.8c-3.2,0-6.3,0.4-9.2,1.3
				c-3,0.9-5.6,2.3-7.8,4.1c-2.3,1.9-4.2,4.2-5.5,7c-1.3,2.7-2,5.9-2,9.4c0,3.1,0.5,6,1.6,8.5c1,2.3,2.3,4.5,3.9,6.4
				c1.5,1.8,3.1,3.4,4.8,4.8c1.5,1.2,3,2.4,4.3,3.4c0.5,0.4,1,0.8,1.5,1.2c-1,0-2-0.1-3-0.2c-1.4-0.2-2.6-0.4-3.7-0.6
				c-0.1,0-0.2,0-0.3-0.1c-1.3-0.2-2.5-0.5-3.7-0.9c-0.4-0.1-0.8-0.2-1.2-0.2c-0.8,0-1.7,0.3-2.4,0.8c-1,0.8-1.6,2-1.6,3.2v18.5
				c0,1.8,1.2,3.3,2.9,3.8c1.6,0.5,3.4,0.9,5.3,1.2c1.6,0.3,3.5,0.6,5.6,0.8c2.1,0.2,4.5,0.3,6.9,0.3c4.3,0,8.2-0.6,11.4-1.8
				c3.4-1.2,6.2-2.9,8.4-5c2.2-2.2,3.9-4.8,5-7.7c1-2.8,1.5-5.8,1.5-9c0-3.1-0.5-5.9-1.5-8.5c-1-2.4-2.1-4.6-3.5-6.5
				c-1.4-1.9-2.9-3.6-4.5-5.1c-1.2-1.1-2.3-2-3.3-2.9c0.1,0,0.2,0,0.3,0c0,0,0.1,0,0.1,0c0.6,0.1,1.1,0.1,1.6,0.2c0.2,0,0.3,0,0.5,0
				c1,0,1.9-0.4,2.7-1c0.9-0.8,1.3-1.8,1.3-3V12c0-2-1.5-3.7-3.4-4c-1.3-0.2-2.6-0.4-4-0.6c0,0-0.1,0-0.1,0l-0.8-0.1l-3.2-0.3
				C229.6,6.9,228,6.8,226.4,6.8L226.4,6.8z"/>
		</g>
		<g>
			<path class="st0" d="M280.1,75.9c-1.1,0-2-0.9-2-2V53.1h-7v20.8c0,1.1-0.9,2-2,2h-19.7c-1.1,0-2-0.9-2-2V12.3c0-1.1,0.9-2,2-2
				h19.7c1.1,0,2,0.9,2,2v19h7v-19c0-1.1,0.9-2,2-2h19.8c1.1,0,2,0.9,2,2v61.6c0,1.1-0.9,2-2,2H280.1z"/>
			<path class="st1" d="M299.8,12.3v61.6h-19.8V51.1h-11v22.8h-19.7V12.3h19.7v21h11v-21H299.8 M299.8,8.3h-19.8c-2.2,0-4,1.8-4,4
				v17h-3v-17c0-2.2-1.8-4-4-4h-19.7c-2.2,0-4,1.8-4,4v61.6c0,2.2,1.8,4,4,4h19.7c2.2,0,4-1.8,4-4V55.1h3v18.8c0,2.2,1.8,4,4,4h19.8
				c2.2,0,4-1.8,4-4V12.3C303.8,10.1,302,8.3,299.8,8.3L299.8,8.3z"/>
		</g>
		<g>
			<path class="st0" d="M306.3,75.9c-1.1,0-2-0.9-2-2V12.3c0-1.1,0.9-2,2-2h20.9c1.1,0,2,0.9,2,2v61.6c0,1.1-0.9,2-2,2H306.3z"/>
			<path class="st1" d="M327.2,12.3v61.6h-20.9V12.3H327.2 M327.2,8.3h-20.9c-2.2,0-4,1.8-4,4v61.6c0,2.2,1.8,4,4,4h20.9
				c2.2,0,4-1.8,4-4V12.3C331.2,10.1,329.4,8.3,327.2,8.3L327.2,8.3z"/>
		</g>
		<g>
			<path class="st0" d="M333.6,75.9c-1.1,0-2-0.9-2-2V12.3c0-1.1,0.9-2,2-2h19.7c4.1,0,8,0.5,11.5,1.4c3.7,0.9,6.9,2.4,9.6,4.4
				c2.8,2,5.1,4.7,6.7,8c1.6,3.3,2.4,7.2,2.4,11.7c0,4.5-0.8,8.5-2.4,11.7c-1.6,3.3-3.9,6-6.7,8c-2.8,2-6,3.5-9.6,4.4
				c-3,0.8-6.2,1.2-9.5,1.3v12.7c0,1.1-0.9,2-2,2H333.6z"/>
			<path class="st1" d="M353.3,12.3c3.9,0,7.6,0.4,11,1.3c3.4,0.9,6.4,2.2,9,4.1c2.6,1.8,4.6,4.3,6.1,7.3c1.5,3,2.2,6.6,2.2,10.9
				c0,4.2-0.7,7.9-2.2,10.9c-1.5,3-3.5,5.4-6.1,7.3c-2.6,1.8-5.5,3.2-9,4.1c-3.4,0.9-7.1,1.3-11,1.3v14.7h-19.7V12.3H353.3
				 M353.3,8.3h-19.7c-2.2,0-4,1.8-4,4v61.6c0,2.2,1.8,4,4,4h19.7c2.2,0,4-1.8,4-4V63.1c2.8-0.2,5.5-0.6,8-1.3
				c3.9-1,7.4-2.6,10.3-4.7c3.1-2.2,5.5-5.2,7.3-8.7c1.7-3.5,2.6-7.8,2.6-12.6c0-4.8-0.9-9.1-2.6-12.6c-1.8-3.6-4.2-6.5-7.3-8.7
				c-3-2.1-6.4-3.7-10.3-4.7C361.6,8.8,357.6,8.3,353.3,8.3L353.3,8.3z"/>
		</g>
		<g>
			<path class="st0" d="M89.7,75.9c-0.7,0-1.3-0.3-1.6-0.9s-0.5-1.2-0.2-1.8l9.9-26l-3.7-3.6c-1.4-1.4-1.9-3.4-1.3-5.3
				c0.6-1.9,2.2-3.2,4.2-3.5l5.9-0.9l8.5-22.3c0.3-0.8,1-1.3,1.9-1.3h14.8c0.8,0,1.6,0.5,1.9,1.3l8.4,22.1l6.5,0.9
				c2,0.3,3.6,1.6,4.2,3.5c0.6,1.9,0.1,3.9-1.3,5.3l-4.1,4l9.8,25.7c0.2,0.6,0.1,1.3-0.2,1.8c-0.4,0.5-1,0.9-1.6,0.9H89.7z"/>
			<path class="st1" d="M127.8,12.3l8.8,23.2l7.6,1.1c1.2,0.2,2.2,1,2.6,2.1c0.4,1.1,0.1,2.4-0.8,3.2l-5.1,5l10.2,26.9h-15.3h-4.1
				h-22.7h-3.7H89.7L100,46.6l-4.7-4.5c-0.9-0.8-1.2-2.1-0.8-3.2c0.4-1.1,1.4-2,2.5-2.2l7.1-1l8.9-23.4H127.8 M127.8,8.3H113
				c-1.7,0-3.2,1-3.7,2.6l-8,21.2l-4.8,0.7c-2.7,0.4-4.9,2.3-5.8,4.9c-0.8,2.6-0.1,5.4,1.8,7.3l2.8,2.7l-9.4,24.8
				c-0.5,1.2-0.3,2.6,0.4,3.7c0.7,1.1,2,1.7,3.3,1.7h15.7h3.7h22.7h4.1h15.3c1.3,0,2.5-0.6,3.3-1.7s0.9-2.5,0.4-3.7L145.6,48
				l3.2-3.1c2-1.9,2.7-4.7,1.8-7.3c-0.9-2.6-3.1-4.5-5.8-4.9l-5.3-0.8l-8-21C131,9.3,129.5,8.3,127.8,8.3L127.8,8.3z"/>
		</g>
	</g>
	<g>
		<path class="st2" d="M47.4,43.3c-1.2-1.7-2.5-3.1-4-4.4c-1.4-1.3-2.8-2.4-4-3.4c-1.2-1-2.2-1.8-3-2.6c-0.8-0.7-1.2-1.4-1.2-1.8
			c0-0.6,0.2-1,0.6-1.3c0.4-0.3,0.8-0.5,1.3-0.6c0.5-0.1,1-0.2,1.6-0.2c0.6,0,1,0,1.4,0c0.7,0,1.3,0,1.9,0.1
			c0.6,0.1,1.2,0.1,1.7,0.2c0.6,0.1,1.2,0.1,1.7,0.2V12c-1.3-0.2-2.6-0.4-4-0.6c-1.2-0.1-2.5-0.3-4-0.4c-1.5-0.2-3-0.2-4.4-0.2
			c-2.8,0-5.5,0.4-8,1.2c-2.5,0.8-4.7,1.9-6.5,3.4c-1.8,1.5-3.3,3.3-4.3,5.5c-1,2.2-1.6,4.8-1.6,7.7c0,2.6,0.4,4.9,1.3,6.9
			c0.9,2,2,3.8,3.3,5.4c1.3,1.6,2.7,3,4.2,4.2c1.5,1.2,2.9,2.4,4.2,3.4c1.3,1,2.4,1.9,3.3,2.8c0.9,0.8,1.3,1.6,1.3,2.4
			c0,2.1-1.4,3.1-4.2,3.1c-1.6,0-3.2-0.1-4.8-0.3c-1.6-0.2-3-0.4-4.2-0.7c-1.5-0.2-2.9-0.6-4.2-1v18.5c1.5,0.4,3.1,0.8,4.9,1.1
			c1.5,0.3,3.3,0.6,5.3,0.8c2,0.2,4.2,0.3,6.5,0.3c3.9,0,7.2-0.5,10.1-1.5c2.8-1,5.2-2.4,7-4.2c1.8-1.8,3.2-3.8,4-6.2
			c0.9-2.4,1.3-4.9,1.3-7.6c0-2.6-0.4-4.9-1.2-7C49.6,46.9,48.6,45,47.4,43.3z M41.3,60.7c-0.8,1.4-1.8,2.6-3.1,3.6
			c-1.3,0.9-2.8,1.6-4.4,2c-1.6,0.4-3.3,0.6-5,0.6c-1,0-2,0-2.9-0.1c-1-0.1-1.9-0.2-2.7-0.3c-1-0.1-1.9-0.3-2.8-0.5v-2.4
			c0.9,0.2,1.8,0.3,2.7,0.5c1.7,0.3,3.6,0.5,5.7,0.5c3.5,0,6.3-0.8,8.3-2.3c2-1.5,3-3.8,3-6.7c0-1.6-0.4-3.1-1.3-4.6
			c-0.9-1.5-2-2.9-3.4-4.3c-1.4-1.4-2.9-2.8-4.4-4.1c-1.6-1.4-3-2.8-4.4-4.2c-1.4-1.4-2.5-2.9-3.4-4.4c-0.9-1.5-1.3-3.1-1.3-4.9
			c0-3.2,1.1-5.6,3.2-7.1c2.2-1.5,4.9-2.3,8.2-2.3c0.6,0,1.1,0,1.6,0c0.5,0,1,0.1,1.4,0.1c0.5,0.1,1,0.1,1.4,0.1v2.4
			c-0.5,0-1,0-1.5-0.1c-0.5-0.1-1-0.1-1.5-0.1c-0.5,0-1,0-1.5,0c-3.1,0-5.4,0.6-6.8,1.8c-1.4,1.2-2.1,2.9-2.1,5.1
			c0,1.5,0.4,2.9,1.3,4.3c0.9,1.4,2,2.8,3.4,4.2s2.9,2.8,4.4,4.1c1.6,1.4,3,2.8,4.4,4.2s2.5,3,3.4,4.6c0.9,1.6,1.3,3.3,1.3,5.1
			C42.5,57.4,42.1,59.2,41.3,60.7z"/>
		<path class="st2" d="M91.5,12.3H48.5v16.2h11.4v45.5h20.3V28.5h11.4V12.3z M84.4,21.9H71.2v44.6h-2.4V21.9H55.6v-2.2h28.8V21.9z"
			/>
		<path class="st2" d="M113,12.3L89.7,73.9h15.7h3.7h22.7h4.1h15.3l-23.4-61.6H113z M120.4,44l4.2,10.8h-8.3L120.4,44z"/>
		<path class="st2" d="M197.2,49.5c1-1.4,2-3.2,2.9-5.4c0.9-2.2,1.3-4.8,1.3-7.9c0-3.9-0.7-7.3-2.1-10.3c-1.4-3-3.3-5.5-5.8-7.5
			c-2.5-2-5.4-3.6-8.7-4.6c-3.4-1-7-1.6-10.9-1.6h-21.2v61.6h19.7V58.3l9.2,15.6h23.1L193,53.6C194.6,52.5,196,51.1,197.2,49.5z
			 M190.4,66.5h-2.9l-8.8-14.8c-2.3,0.5-4.6,0.7-7,0.7h-7.6v14h-2.4V19.7h10c2.9,0,5.6,0.4,8,1.1c2.5,0.7,4.6,1.8,6.4,3.1
			c1.8,1.4,3.2,3.1,4.3,5.1c1,2,1.6,4.4,1.6,7.1c0,3.9-1,7-3,9.5c-2,2.4-4.6,4.2-7.9,5.4L190.4,66.5z"/>
		<path class="st2" d="M185,25.6c-3.2-2.5-7.6-3.7-13.2-3.7h-7.6v28.4h7.6c5.6,0,10-1.2,13.2-3.6c3.2-2.4,4.8-5.9,4.8-10.5
			C189.7,31.6,188.1,28.1,185,25.6z M179.2,41c-1.6,1-3.6,1.6-6,1.6h-1V28.9h1c2.3,0,4.3,0.5,6,1.6c1.6,1,2.4,2.8,2.4,5.3
			C181.7,38.2,180.9,40,179.2,41z"/>
		<path class="st2" d="M240.9,43.3c-1.2-1.7-2.5-3.1-4-4.4c-1.4-1.3-2.8-2.4-4-3.4c-1.2-1-2.2-1.8-3-2.6c-0.8-0.7-1.2-1.4-1.2-1.8
			c0-0.6,0.2-1,0.6-1.3c0.4-0.3,0.8-0.5,1.3-0.6c0.5-0.1,1-0.2,1.6-0.2c0.6,0,1,0,1.4,0c0.7,0,1.3,0,1.9,0.1
			c0.6,0.1,1.2,0.1,1.7,0.2c0.6,0.1,1.2,0.1,1.7,0.2V12c-1.3-0.2-2.6-0.4-4-0.6c-1.2-0.1-2.5-0.3-4-0.4c-1.5-0.2-3-0.2-4.4-0.2
			c-2.8,0-5.5,0.4-8,1.2c-2.5,0.8-4.7,1.9-6.5,3.4c-1.8,1.5-3.3,3.3-4.3,5.5c-1,2.2-1.6,4.8-1.6,7.7c0,2.6,0.4,4.9,1.3,6.9
			c0.9,2,2,3.8,3.3,5.4c1.3,1.6,2.7,3,4.2,4.2c1.5,1.2,2.9,2.4,4.2,3.4c1.3,1,2.4,1.9,3.3,2.8c0.9,0.8,1.3,1.6,1.3,2.4
			c0,2.1-1.4,3.1-4.2,3.1c-1.6,0-3.2-0.1-4.8-0.3s-3-0.4-4.2-0.7c-1.5-0.2-2.9-0.6-4.2-1v18.5c1.5,0.4,3.1,0.8,4.9,1.1
			c1.5,0.3,3.3,0.6,5.3,0.8c2,0.2,4.2,0.3,6.5,0.3c3.9,0,7.2-0.5,10.1-1.5c2.8-1,5.2-2.4,7-4.2c1.8-1.8,3.2-3.8,4-6.2
			c0.9-2.4,1.3-4.9,1.3-7.6c0-2.6-0.4-4.9-1.2-7C243.2,46.9,242.1,45,240.9,43.3z M234.8,60.7c-0.8,1.4-1.8,2.6-3.1,3.6
			c-1.3,0.9-2.8,1.6-4.4,2c-1.6,0.4-3.3,0.6-5,0.6c-1,0-2,0-2.9-0.1c-1-0.1-1.9-0.2-2.7-0.3c-1-0.1-1.9-0.3-2.8-0.5v-2.4
			c0.9,0.2,1.8,0.3,2.7,0.5c1.7,0.3,3.6,0.5,5.7,0.5c3.5,0,6.3-0.8,8.3-2.3c2-1.5,3-3.8,3-6.7c0-1.6-0.4-3.1-1.3-4.6
			c-0.9-1.5-2-2.9-3.4-4.3c-1.4-1.4-2.9-2.8-4.4-4.1c-1.6-1.4-3-2.8-4.4-4.2c-1.4-1.4-2.5-2.9-3.4-4.4c-0.9-1.5-1.3-3.1-1.3-4.9
			c0-3.2,1.1-5.6,3.2-7.1c2.2-1.5,4.9-2.3,8.2-2.3c0.6,0,1.1,0,1.6,0c0.5,0,1,0.1,1.4,0.1c0.5,0.1,1,0.1,1.4,0.1v2.4
			c-0.5,0-1,0-1.5-0.1c-0.5-0.1-1-0.1-1.5-0.1c-0.5,0-1,0-1.5,0c-3.1,0-5.4,0.6-6.8,1.8c-1.4,1.2-2.1,2.9-2.1,5.1
			c0,1.5,0.4,2.9,1.3,4.3c0.9,1.4,2,2.8,3.4,4.2s2.9,2.8,4.4,4.1c1.6,1.4,3,2.8,4.4,4.2s2.5,3,3.4,4.6c0.9,1.6,1.3,3.3,1.3,5.1
			C236,57.4,235.6,59.2,234.8,60.7z"/>
		<path class="st2" d="M280.1,33.3h-11v-21h-19.7v61.6h19.7V51.1h11v22.8h19.8V12.3h-19.8V33.3z M288.2,19.7h2.4v46.8h-2.4V43.2H261
			v23.4h-2.4V19.7h2.4v21.2h27.2V19.7z"/>
		<path class="st2" d="M306.3,73.9h20.9V12.3h-20.9V73.9z M315.5,19.7h2.4v46.8h-2.4V19.7z"/>
		<path class="st2" d="M379.4,24.9c-1.5-3-3.5-5.4-6.1-7.3c-2.6-1.8-5.5-3.2-9-4.1c-3.4-0.9-7.1-1.3-11-1.3h-19.7v61.6h19.7V59.2
			c3.9,0,7.6-0.4,11-1.3c3.4-0.9,6.4-2.2,9-4.1c2.6-1.8,4.6-4.3,6.1-7.3c1.5-3,2.2-6.6,2.2-10.9C381.6,31.5,380.8,27.9,379.4,24.9z
			 M371.2,43c-1,2-2.3,3.7-4,5c-1.7,1.3-3.8,2.3-6.1,2.9c-2.4,0.6-4.9,1-7.7,1h-8v14.7h-2.4V19.7h10.4c2.8,0,5.3,0.3,7.7,1
			c2.4,0.6,4.4,1.6,6.1,2.9c1.7,1.3,3.1,3,4,5c1,2,1.4,4.4,1.4,7.2S372.1,40.9,371.2,43z"/>
		<path class="st2" d="M365,24.9c-1.5-1-3.3-1.8-5.3-2.3c-2-0.5-4.1-0.7-6.3-0.7h-8v27.7h8c2.2,0,4.3-0.2,6.3-0.7
			c2-0.5,3.8-1.2,5.3-2.3c1.5-1,2.8-2.5,3.7-4.2c0.9-1.8,1.4-4,1.4-6.7c0-2.6-0.5-4.9-1.4-6.7C367.7,27.3,366.5,25.9,365,24.9z
			 M359.7,40.8c-1.1,1.2-3,1.8-5.6,1.8h-0.8V28.9h0.8c2.6,0,4.4,0.6,5.6,1.8c1.1,1.2,1.7,2.9,1.7,5
			C361.4,37.9,360.9,39.6,359.7,40.8z"/>
	</g>
	<g>
		<path class="st0" d="M106.4,68.6c-0.3,0-0.7-0.1-0.9-0.3c-0.5-0.4-0.7-1-0.6-1.5l2.6-15.1L96.4,41c-0.4-0.4-0.6-1-0.4-1.6
			c0.2-0.6,0.7-1,1.3-1.1l15.2-2.2l6.8-13.8c0.3-0.5,0.8-0.9,1.4-0.9c0,0,0,0,0,0c0.6,0,1.1,0.3,1.4,0.9l6.8,13.7l15.2,2.2
			c0.6,0.1,1.1,0.5,1.3,1.1c0.2,0.6,0,1.2-0.4,1.6l-11,10.7l2.6,15.1c0.1,0.6-0.1,1.2-0.6,1.5c-0.3,0.2-0.6,0.3-0.9,0.3
			c-0.3,0-0.5-0.1-0.7-0.2l-13.6-7.1l-13.6,7.2C106.9,68.6,106.7,68.6,106.4,68.6z"/>
		<path class="st2" d="M120.7,23l7.2,14.5l16,2.3l-11.6,11.3L135,67l-14.3-7.5L106.4,67l2.7-15.9L97.5,39.8l16-2.4L120.7,23
			 M120.7,19.8C120.6,19.8,120.6,19.8,120.7,19.8c-1.2,0-2.3,0.7-2.8,1.8l-6.4,13l-14.3,2.1c-1.2,0.2-2.2,1-2.5,2.2
			c-0.4,1.1-0.1,2.4,0.8,3.2l10.4,10.1l-2.4,14.3c-0.2,1.2,0.3,2.4,1.3,3.1c0.5,0.4,1.2,0.6,1.9,0.6c0.5,0,1-0.1,1.5-0.4l12.8-6.8
			l12.8,6.7c0.5,0.2,1,0.4,1.5,0.4c0.7,0,1.3-0.2,1.9-0.6c1-0.7,1.5-1.9,1.3-3.1l-2.5-14.3L146,42c0.9-0.8,1.2-2.1,0.8-3.2
			c-0.4-1.1-1.4-2-2.6-2.1l-14.4-2.1l-6.4-13C122.9,20.5,121.9,19.8,120.7,19.8L120.7,19.8z"/>
	</g>
</g>
<g id="Layer_2">
</g>
</svg>
